<?xml version="1.0" encoding="UTF-8" standalone="no"?>
<!-- Created with Inkscape (http://www.inkscape.org/) -->

<svg
   xmlns:dc="http://purl.org/dc/elements/1.1/"
   xmlns:cc="http://creativecommons.org/ns#"
   xmlns:rdf="http://www.w3.org/1999/02/22-rdf-syntax-ns#"
   xmlns:svg="http://www.w3.org/2000/svg"
   xmlns="http://www.w3.org/2000/svg"
   xmlns:sodipodi="http://sodipodi.sourceforge.net/DTD/sodipodi-0.dtd"
   xmlns:inkscape="http://www.inkscape.org/namespaces/inkscape"
   width="1000.0001"
   height="264.87637"
   viewBox="0 0 264.58335 70.081876"
   version="1.1"
   id="svg1291"
   inkscape:version="0.92.4 (5da689c313, 2019-01-14)"
   sodipodi:docname="A.svg">
  <defs
     id="defs1285" />
  <sodipodi:namedview
     id="base"
     pagecolor="#ffffff"
     bordercolor="#666666"
     borderopacity="1.0"
     inkscape:pageopacity="0.0"
     inkscape:pageshadow="2"
     inkscape:zoom="0.35"
     inkscape:cx="1622.8571"
     inkscape:cy="-438.99032"
     inkscape:document-units="px"
     inkscape:current-layer="layer1"
     showgrid="false"
     units="px"
     fit-margin-top="0"
     fit-margin-left="0"
     fit-margin-right="0"
     fit-margin-bottom="0"
     inkscape:window-width="1920"
     inkscape:window-height="1017"
     inkscape:window-x="1912"
     inkscape:window-y="-6"
     inkscape:window-maximized="1" />
  <metadata
     id="metadata1288">
    <rdf:RDF>
      <cc:Work
         rdf:about="">
        <dc:format>image/svg+xml</dc:format>
        <dc:type
           rdf:resource="http://purl.org/dc/dcmitype/StillImage" />
        <dc:title></dc:title>
      </cc:Work>
    </rdf:RDF>
  </metadata>
  <g
     inkscape:label="Layer 1"
     inkscape:groupmode="layer"
     id="layer1"
     transform="translate(323.54762,37.398082)">
    <g
       id="g1189"
       transform="matrix(2.8868791,0,0,-2.8868791,-128.60446,-32.377799)"
       style="stroke-width:0.1222004">
      <path
         d="m 0,0 c 0,0.96 0.797,1.739 1.782,1.739 h 20.557 c 0.984,0 1.784,-0.779 1.784,-1.739 v -20.798 c 0,-0.96 -0.8,-1.739 -1.784,-1.739 H 1.782 C 0.797,-22.537 0,-21.758 0,-20.798 Z"
         style="fill:#007fb1;fill-opacity:1;fill-rule:nonzero;stroke:none;stroke-width:0.1222004"
         id="path1191"
         inkscape:connector-curvature="0" />
    </g>
    <g
       id="g1193"
       transform="matrix(2.8868791,0,0,-2.8868791,-323.54762,21.305161)"
       style="stroke-width:0.1222004">
      <path
         d="M 0,0 H 10.067 V 3.305 H 3.643 V 15.591 H 0 Z"
         style="fill:#000000;fill-opacity:1;fill-rule:nonzero;stroke:none;stroke-width:0.1222004"
         id="path1195"
         inkscape:connector-curvature="0" />
    </g>
    <g
       id="g1197"
       transform="matrix(2.8868791,0,0,-2.8868791,-285.03204,-14.659576)"
       style="stroke-width:0.1222004">
      <path
         d="M 0,0 C 1.272,0 2.061,0.842 2.061,1.894 2.039,2.97 1.272,3.789 0.025,3.789 -1.221,3.789 -2.036,2.97 -2.036,1.894 -2.036,0.842 -1.246,0 -0.024,0 Z m 1.822,-1.496 h -3.644 v -10.962 h 3.644 z"
         style="fill:#000000;fill-opacity:1;fill-rule:evenodd;stroke:none;stroke-width:0.1222004"
         id="path1199"
         inkscape:connector-curvature="0" />
    </g>
    <g
       id="g1201"
       transform="matrix(2.8868791,0,0,-2.8868791,-274.88639,21.305161)"
       style="stroke-width:0.1222004">
      <path
         d="m 0,0 h 3.643 v 6.122 c 0,0.329 0.022,0.655 0.121,0.888 0.262,0.656 0.862,1.334 1.868,1.334 1.319,0 1.847,-1.006 1.847,-2.48 V 0 h 3.643 v 6.285 c 0,3.368 -1.798,4.935 -4.196,4.935 -1.965,0 -2.827,-1.1 -3.307,-1.848 h 0.024 v 1.59 H 0 C 0.047,9.933 0,0 0,0"
         style="fill:#000000;fill-opacity:1;fill-rule:evenodd;stroke:none;stroke-width:0.1222004"
         id="path1203"
         inkscape:connector-curvature="0" />
    </g>
    <g
       id="g1205"
       transform="matrix(2.8868791,0,0,-2.8868791,-227.94343,-23.703592)"
       style="stroke-width:0.1222004">
      <path
         d="M 0,0 H -3.643 V -15.591 H 0 v 3.555 l 0.911,1.146 2.853,-4.701 h 4.482 l -4.795,6.806 4.195,4.629 H 3.26 c 0,0 -2.996,-4.143 -3.26,-4.633 z"
         style="fill:#000000;fill-opacity:1;fill-rule:nonzero;stroke:none;stroke-width:0.1222004"
         id="path1207"
         inkscape:connector-curvature="0" />
    </g>
    <g
       id="g1209"
       transform="matrix(2.8868791,0,0,-2.8868791,-197.87542,0.98759768)"
       style="stroke-width:0.1222004">
      <path
         d="M 0,0 C 0.095,0.935 0.719,2.316 2.278,2.316 3.929,2.316 4.314,0.841 4.314,0 Z m 7.574,-2.465 c 0.048,0.282 0.119,0.821 0.119,1.432 0,2.833 -1.438,5.709 -5.224,5.709 -4.053,0 -5.92,-3.203 -5.92,-6.109 0,-3.594 2.275,-5.837 6.255,-5.837 1.582,0 3.044,0.232 4.242,0.723 L 6.566,-4.14 C 5.584,-4.467 4.578,-4.63 3.331,-4.63 c -1.702,0 -3.188,0.698 -3.308,2.189 z"
         style="fill:#000000;fill-opacity:1;fill-rule:evenodd;stroke:none;stroke-width:0.1222004"
         id="path1211"
         inkscape:connector-curvature="0" />
    </g>
    <g
       id="g1213"
       transform="matrix(2.8868791,0,0,-2.8868791,-149.70207,6.6565627)"
       style="stroke-width:0.1222004">
      <path
         d="m 0,0 c 0,-0.28 -0.024,-0.562 -0.073,-0.795 -0.215,-1.005 -1.078,-1.707 -2.132,-1.707 -1.511,0 -2.493,1.217 -2.493,3.133 0,1.801 0.838,3.25 2.517,3.25 1.125,0 1.917,-0.77 2.134,-1.729 C 0,1.941 0,1.707 0,1.497 Z M 0,10.516 V 5.331 h -0.047 c -0.528,0.773 -1.631,1.286 -3.093,1.286 -2.805,0 -5.273,-2.245 -5.25,-6.079 0,-3.554 2.23,-5.869 5.011,-5.869 1.51,0 2.948,0.655 3.666,1.917 H 0.36 l 0.142,-1.66 H 3.74 C 3.69,-4.302 3.643,-2.97 3.643,-1.661 v 12.177 z"
         style="fill:#000000;fill-opacity:1;fill-rule:evenodd;stroke:none;stroke-width:0.1222004"
         id="path1215"
         inkscape:connector-curvature="0" />
    </g>
    <g
       id="g1217"
       transform="matrix(2.8868791,0,0,-2.8868791,-112.7555,-14.697395)"
       style="stroke-width:0.1222004">
      <path
         d="m 0,0 c 1.271,0 2.061,0.842 2.061,1.895 -0.024,1.074 -0.79,1.894 -2.038,1.894 -1.247,0 -2.06,-0.82 -2.06,-1.894 C -2.037,0.842 -1.247,0 -0.023,0 Z m 1.822,-1.496 h -3.644 v -10.962 h 3.644 z"
         style="fill:#ffffff;fill-opacity:1;fill-rule:evenodd;stroke:none;stroke-width:0.1222004"
         id="path1219"
         inkscape:connector-curvature="0" />
    </g>
    <g
       id="g1221"
       transform="matrix(2.8868791,0,0,-2.8868791,-101.67797,21.268212)"
       style="stroke-width:0.1222004">
      <path
         d="m 0,0 h 3.643 v 6.122 c 0,0.328 0.025,0.655 0.121,0.889 0.263,0.655 0.862,1.333 1.869,1.333 1.318,0 1.848,-1.006 1.848,-2.478 V 0 h 3.641 v 6.286 c 0,3.367 -1.797,4.934 -4.195,4.934 -1.965,0 -2.828,-1.1 -3.307,-1.848 h 0.023 v 1.59 H 0 C 0.049,9.934 0,0 0,0"
         style="fill:#ffffff;fill-opacity:1;fill-rule:evenodd;stroke:none;stroke-width:0.1222004"
         id="path1223"
         inkscape:connector-curvature="0" />
    </g>
  </g>
</svg>
