<svg xmlns="http://www.w3.org/2000/svg" viewBox="0 0 496.71 456.86"><defs><style>.cls-1{fill:#6f1510;}.cls-2{fill:#fff;}</style></defs><g id="Calque_2" data-name="Calque 2"><g id="Calque_1-2" data-name="Calque 1"><path class="cls-1" d="M199.11.13C263.24.13,327.36.2,391.49,0c5,0,5.93,1.5,5.92,6.26q-.2,185.53-.1,371.07c0,13.7,6.27,23.76,16.93,27.32,15.85,5.29,31.31-5.49,32.64-22.79.16-2.1.08-4.22.08-6.34q0-133.51-.16-267c0-6,1.77-7.15,7.13-7,12.61.39,25.24.25,37.85,0,3.54-.06,4.94.46,4.93,4.68-.15,93,.05,186.06-.23,279.1-.1,32.63-28.05,64.54-60.18,70.26a83.45,83.45,0,0,1-14.79,1.27q-173.14,0-346.29,0C33.09,456.82.14,423.25.13,380.34Q.1,193.22,0,6.09C0,1,1.42,0,6.1,0Q102.61.26,199.11.13Z"/><path class="cls-2" d="M198.72,152.37c-31.23,0-62.47-.11-93.7.12-4.62,0-5.79-1.07-5.72-5.83.28-21.77.23-43.55,0-65.32,0-4.14,1-5.19,5.07-5.18q94.32.2,188.64,0c4,0,5.12,1,5.08,5.17q-.32,33,0,66c0,4.13-1,5.2-5.07,5.18C261.6,152.29,230.16,152.37,198.72,152.37Z"/><path class="cls-2" d="M198.25,279.23c-30.62,0-61.23-.22-91.84.19-6.26.08-7.36-1.82-7.13-7.65.47-12,.41-24.11,0-36.14-.17-5.45.88-7.33,6.81-7.3q92.46.39,184.91,0c6.26,0,7.36,1.81,7.14,7.65-.48,12-.41,24.1,0,36.14.18,5.45-.86,7.37-6.81,7.3C260.3,279,229.27,279.23,198.25,279.23Z"/><path class="cls-2" d="M198.73,380.73c-31.23,0-62.46-.12-93.69.12-4.63,0-5.86-1.07-5.73-5.84.36-13.52.25-27.06,0-40.58,0-3.6.94-4.53,4.44-4.53q94.94.17,189.88,0c3.49,0,4.49.92,4.44,4.52-.2,13.74-.25,27.49,0,41.22.08,4.16-1,5.21-5.08,5.18C261.61,380.65,230.17,380.73,198.73,380.73Z"/></g></g></svg>