<svg xmlns="http://www.w3.org/2000/svg" viewBox="0 0 980.1 735.1"><defs><style>.cls-1{fill:#700b0b;}</style></defs><g id="Calque_2" data-name="Calque 2"><g id="Calque_1-2" data-name="Calque 1"><path class="cls-1" d="M796.3,0H183.8C82.7,0,0,82.7,0,183.8V551.3C0,652.4,82.7,735.1,183.8,735.1H796.3c101.1,0,183.8-82.7,183.8-183.8V183.8C980,82.7,897.3,0,796.3,0ZM918.8,551.3A122.91,122.91,0,0,1,796.3,673.8H183.8A122.91,122.91,0,0,1,61.3,551.3V183.8A122.91,122.91,0,0,1,183.8,61.3H796.3A122.91,122.91,0,0,1,918.8,183.8ZM367.5,612.5l306.3-245-306.3-245Z"/></g></g></svg>